<?xml version="1.0" encoding="UTF-8"?>
<svg version="1.1" xmlns="http://www.w3.org/2000/svg" width="16" height="16">
<path d="M0 0 C5.28 0 10.56 0 16 0 C16 5.28 16 10.56 16 16 C10.72 16 5.44 16 0 16 C0 10.72 0 5.44 0 0 Z " fill="#E0B2A2" transform="translate(0,0)"/>
<path d="M0 0 C3.60008519 -0.32728047 5.41611492 -0.40422813 8.4375 1.6875 C10 4 10 4 9.75 6.75 C9.5025 7.4925 9.255 8.235 9 9 C6.69 9.33 4.38 9.66 2 10 C-0.4294516 6.3558226 -0.16179575 4.28758728 0 0 Z " fill="#5390F5" transform="translate(0,0)"/>
<path d="M0 0 C0.66 0.66 1.32 1.32 2 2 C5.58343976 2.16677282 5.58343976 2.16677282 9 2 C9.33 1.34 9.66 0.68 10 0 C12.33760758 3.71267087 11.9611085 4.19445748 11 9 C7.37 9 3.74 9 0 9 C0 6.03 0 3.06 0 0 Z " fill="#FEFEFE" transform="translate(0,7)"/>
<path d="M0 0 C3.3 0 6.6 0 10 0 C10 1.65 10 3.3 10 5 C9.34 5 8.68 5 8 5 C7.67 5.66 7.34 6.32 7 7 C6.01 7 5.02 7 4 7 C3.566875 5.824375 3.566875 5.824375 3.125 4.625 C2.15087746 1.90328368 2.15087746 1.90328368 0 0 Z " fill="#FFFFFF" transform="translate(6,0)"/>
<path d="M0 0 C0.99 0 1.98 0 3 0 C3.33 0.99 3.66 1.98 4 3 C2.02 3.99 2.02 3.99 0 5 C-0.5625 3.0625 -0.5625 3.0625 -1 1 C-0.67 0.67 -0.34 0.34 0 0 Z " fill="#FBBC09" transform="translate(11,11)"/>
</svg>
