<svg width="350" height="65" viewBox="0 0 350 65" fill="none" xmlns="http://www.w3.org/2000/svg">
<path d="M22.8 12.7C22.8 15.0333 23.6 17.0333 25.2 18.7C26.8 20.3 29.5 21.6667 33.3 22.8C33.5 22.9333 33.4667 23.2 33.2 23.6C33 23.9333 32.7 24.3333 32.3 24.8C31.9 25.2 31.4667 25.5667 31 25.9C30.5333 26.2333 30.1667 26.4333 29.9 26.5C22.5 26.1667 16.7667 27.7667 12.7 31.3C8.7 34.7667 6.7 39.9333 6.7 46.8C6.7 49.1333 7.03333 51.3 7.7 53.3C8.43333 55.3 9.43333 57.0333 10.7 58.5C12.0333 59.9667 13.6 61.1333 15.4 62C17.2667 62.8 19.3667 63.2 21.7 63.2C27.1667 63.2 31.6333 61.9333 35.1 59.4C38.5667 56.8667 41.0667 52.7667 42.6 47.1C42.8 46.7667 43 46.6667 43.2 46.8C43.4667 46.9333 43.6333 47.2 43.7 47.6C42.9 51.3333 41.9333 54.4333 40.8 56.9C39.7333 59.3667 38.7333 60.8 37.8 61.2C35 62.4667 32.1667 63.4333 29.3 64.1C26.4333 64.7 23.0667 65 19.2 65C12.9333 65 8.16667 63.6333 4.9 60.9C1.63333 58.1 2.38419e-07 54.2 2.38419e-07 49.2C2.38419e-07 46 0.633334 43.0667 1.9 40.4C3.16667 37.6667 4.9 35.2333 7.1 33.1C9.36667 30.9667 12.0333 29.1667 15.1 27.7C18.1667 26.2333 21.5333 25.1667 25.2 24.5C22.6667 23.4333 20.6333 22 19.1 20.2C17.5667 18.4 16.8 16.3333 16.8 14C16.8 12.2 17.2333 10.5 18.1 8.9C19.0333 7.23333 20.3667 5.8 22.1 4.6C23.8333 3.4 25.9667 2.43333 28.5 1.7C31.0333 0.966663 33.9333 0.599995 37.2 0.599995C39 0.599995 40.7 0.766661 42.3 1.09999C43.9 1.43333 45.3 1.86666 46.5 2.4C47.7667 2.93333 48.7333 3.56666 49.4 4.29999C50.1333 4.96666 50.5 5.63333 50.5 6.3C50.5 6.83333 50.3667 7.5 50.1 8.3C49.9 9.1 49.6 9.9 49.2 10.7C48.8667 11.5 48.5 12.2667 48.1 13C47.7667 13.6667 47.5 14.1333 47.3 14.4C47.1 14.5333 46.9 14.5333 46.7 14.4C46.5 14.2667 46.4333 14.0667 46.5 13.8C46.9 13.0667 47.1667 12.2667 47.3 11.4C47.4333 10.5333 47.3 9.63333 46.9 8.7C46.1 7.03333 44.6 5.63333 42.4 4.5C40.2667 3.3 37.7333 2.7 34.8 2.7C30.8 2.7 27.8 3.63333 25.8 5.5C23.8 7.3 22.8 9.7 22.8 12.7ZM58.8295 42.3C58.8295 43.3 58.7295 44.4333 58.5295 45.7C58.3295 46.9667 58.0629 48.2667 57.7295 49.6C59.0629 46.4 60.5295 43.9 62.1295 42.1C63.7295 40.3 65.4629 39.4 67.3295 39.4C68.3295 39.4 69.0962 39.6333 69.6295 40.1C70.1629 40.5667 70.4295 41.1667 70.4295 41.9C70.4295 42.5667 70.1629 43.4333 69.6295 44.5C69.1629 45.5667 68.7629 46.3 68.4295 46.7C68.2962 46.7667 68.1629 46.7667 68.0295 46.7C67.8962 46.5667 67.8295 46.4333 67.8295 46.3C67.8295 45.8333 67.6295 45.4333 67.2295 45.1C66.8962 44.7667 66.3629 44.6 65.6295 44.6C63.2962 44.6 61.1629 46.2 59.2295 49.4C57.3629 52.5333 55.6295 57.0667 54.0295 63C53.9629 63.3333 53.7295 63.6333 53.3295 63.9C52.9295 64.1 52.4629 64.3 51.9295 64.5C51.4629 64.6333 50.9629 64.7667 50.4295 64.9C49.8962 64.9667 49.4295 65 49.0295 65C48.2962 65 48.0962 64.6 48.4295 63.8C49.0295 62.4 49.5962 60.9 50.1295 59.3C50.7295 57.6333 51.2629 55.9667 51.7295 54.3C52.1962 52.6333 52.5962 51.0333 52.9295 49.5C53.2629 47.9 53.5295 46.4333 53.7295 45.1C53.8629 44.1 53.8962 43.3333 53.8295 42.8C53.8295 42.2667 53.5629 42 53.0295 42C52.3629 42 51.6629 42.3 50.9295 42.9C50.2629 43.4333 49.6295 44.1333 49.0295 45C48.7629 45.2 48.4962 45.2333 48.2295 45.1C48.0295 44.9 47.9962 44.6667 48.1295 44.4C48.5295 43.8667 48.9962 43.3333 49.5295 42.8C50.1295 42.2 50.7629 41.6667 51.4295 41.2C52.1629 40.6667 52.8962 40.2333 53.6295 39.9C54.4295 39.5667 55.2295 39.4 56.0295 39.4C57.0962 39.4 57.8295 39.6667 58.2295 40.2C58.6295 40.6667 58.8295 41.3667 58.8295 42.3ZM82.2809 35.1C82.0809 35.3 81.8476 35.3 81.5809 35.1C81.3809 34.9 81.2143 34.6333 81.0809 34.3C80.9476 33.9 80.8809 33.5 80.8809 33.1C80.8809 32.6333 80.9809 32.2333 81.1809 31.9C81.9143 30.9667 82.9809 29.8 84.3809 28.4C85.8476 26.9333 87.3476 25.7 88.8809 24.7C89.0143 24.6333 89.1809 24.7 89.3809 24.9C89.5809 25.0333 89.6476 25.1667 89.5809 25.3C88.1809 26.5667 86.8476 28.1 85.5809 29.9C84.3143 31.6333 83.2143 33.3667 82.2809 35.1ZM71.5809 46.4C71.3809 46.5333 71.2143 46.5 71.0809 46.3C70.9476 46.0333 70.9143 45.8 70.9809 45.6C73.4476 43.6 76.8809 41.5333 81.2809 39.4C81.8143 39.4 82.0809 39.7 82.0809 40.3C81.2143 41.8333 80.3476 43.5 79.4809 45.3C78.6809 47.1 77.9476 48.9 77.2809 50.7C76.6809 52.4333 76.1809 54.1333 75.7809 55.8C75.3809 57.4 75.1809 58.7333 75.1809 59.8C75.1809 61.1333 75.6476 61.8 76.5809 61.8C77.3143 61.8 78.0143 61.5 78.6809 60.9C79.4143 60.2333 80.2476 59.4 81.1809 58.4C81.3143 58.2667 81.4809 58.3 81.6809 58.5C81.8809 58.6333 81.9143 58.8667 81.7809 59.2C80.3143 60.9333 78.8476 62.3333 77.3809 63.4C75.9809 64.4667 74.6143 65 73.2809 65C70.9476 65 69.7809 63.9 69.7809 61.7C69.7809 60.5 69.9476 59.1 70.2809 57.5C70.6809 55.8333 71.1809 54.1667 71.7809 52.5C72.4476 50.7667 73.1476 49.1 73.8809 47.5C74.6809 45.8333 75.4809 44.4 76.2809 43.2C75.5476 43.6 74.7143 44.1 73.7809 44.7C72.9143 45.3 72.1809 45.8667 71.5809 46.4ZM102.742 48.4C102.342 48.5333 102.142 48.3667 102.142 47.9C102.609 46.5 102.509 45.2667 101.842 44.2C101.242 43.1333 100.109 42.6 98.4425 42.6C96.3092 42.6 94.5758 43.9333 93.2425 46.6C91.9758 49.2667 91.3425 52.7333 91.3425 57C91.3425 60.1333 92.5758 61.7 95.0425 61.7C96.1758 61.7 97.4092 61.3 98.7425 60.5C100.142 59.6333 101.409 58.5333 102.542 57.2C102.809 57.0667 103.042 57.1 103.242 57.3C103.442 57.5 103.476 57.7333 103.342 58C101.676 60.1333 99.8092 61.8333 97.7425 63.1C95.6758 64.3667 93.4758 65 91.1425 65C89.6758 65 88.4425 64.5 87.4425 63.5C86.4425 62.4333 85.9425 60.9667 85.9425 59.1C85.9425 56.7667 86.4092 54.4333 87.3425 52.1C88.3425 49.7 89.6092 47.5667 91.1425 45.7C92.6758 43.8333 94.3425 42.3333 96.1425 41.2C97.9425 40 99.7092 39.4 101.442 39.4C102.976 39.4 104.176 39.8333 105.042 40.7C105.909 41.5667 106.342 42.5333 106.342 43.6C106.342 44 106.209 44.4333 105.942 44.9C105.742 45.3667 105.442 45.8333 105.042 46.3C104.709 46.7667 104.309 47.2 103.842 47.6C103.442 48 103.076 48.2667 102.742 48.4ZM149.553 12.7C149.553 15.0333 150.353 17.0333 151.953 18.7C153.553 20.3 156.253 21.6667 160.053 22.8C160.253 22.9333 160.22 23.2 159.953 23.6C159.753 23.9333 159.453 24.3333 159.053 24.8C158.653 25.2 158.22 25.5667 157.753 25.9C157.286 26.2333 156.92 26.4333 156.653 26.5C149.253 26.1667 143.52 27.7667 139.453 31.3C135.453 34.7667 133.453 39.9333 133.453 46.8C133.453 49.1333 133.786 51.3 134.453 53.3C135.186 55.3 136.186 57.0333 137.453 58.5C138.786 59.9667 140.353 61.1333 142.153 62C144.02 62.8 146.12 63.2 148.453 63.2C153.92 63.2 158.386 61.9333 161.853 59.4C165.32 56.8667 167.82 52.7667 169.353 47.1C169.553 46.7667 169.753 46.6667 169.953 46.8C170.22 46.9333 170.386 47.2 170.453 47.6C169.653 51.3333 168.686 54.4333 167.553 56.9C166.486 59.3667 165.486 60.8 164.553 61.2C161.753 62.4667 158.92 63.4333 156.053 64.1C153.186 64.7 149.82 65 145.953 65C139.686 65 134.92 63.6333 131.653 60.9C128.386 58.1 126.753 54.2 126.753 49.2C126.753 46 127.386 43.0667 128.653 40.4C129.92 37.6667 131.653 35.2333 133.853 33.1C136.12 30.9667 138.786 29.1667 141.853 27.7C144.92 26.2333 148.286 25.1667 151.953 24.5C149.42 23.4333 147.386 22 145.853 20.2C144.32 18.4 143.553 16.3333 143.553 14C143.553 12.2 143.986 10.5 144.853 8.9C145.786 7.23333 147.12 5.8 148.853 4.6C150.586 3.4 152.72 2.43333 155.253 1.7C157.786 0.966663 160.686 0.599995 163.953 0.599995C165.753 0.599995 167.453 0.766661 169.053 1.09999C170.653 1.43333 172.053 1.86666 173.253 2.4C174.52 2.93333 175.486 3.56666 176.153 4.29999C176.886 4.96666 177.253 5.63333 177.253 6.3C177.253 6.83333 177.12 7.5 176.853 8.3C176.653 9.1 176.353 9.9 175.953 10.7C175.62 11.5 175.253 12.2667 174.853 13C174.52 13.6667 174.253 14.1333 174.053 14.4C173.853 14.5333 173.653 14.5333 173.453 14.4C173.253 14.2667 173.186 14.0667 173.253 13.8C173.653 13.0667 173.92 12.2667 174.053 11.4C174.186 10.5333 174.053 9.63333 173.653 8.7C172.853 7.03333 171.353 5.63333 169.153 4.5C167.02 3.3 164.486 2.7 161.553 2.7C157.553 2.7 154.553 3.63333 152.553 5.5C150.553 7.3 149.553 9.7 149.553 12.7ZM210.783 44C210.783 42.6 210.283 41.9 209.283 41.9C207.283 41.9 204.916 43.7667 202.183 47.5C199.449 51.1667 196.916 56.4333 194.583 63.3C194.449 63.7 193.883 64.1 192.883 64.5C191.949 64.8333 191.049 65 190.183 65C189.383 65 189.083 64.7 189.283 64.1C189.683 62.9 190.216 61.4 190.883 59.6C191.616 57.8 192.283 55.9667 192.883 54.1C193.549 52.1667 194.116 50.3667 194.583 48.7C195.049 46.9667 195.283 45.6333 195.283 44.7C195.283 42.9 194.716 42 193.583 42C191.849 42 189.649 43.8 186.983 47.4C184.383 50.9333 181.849 56.2333 179.383 63.3C179.249 63.7 178.716 64.1 177.783 64.5C176.849 64.8333 176.016 65 175.283 65C174.949 65 174.683 64.9333 174.483 64.8C174.283 64.6667 174.249 64.4333 174.383 64.1C174.916 62.6333 175.483 61.0333 176.083 59.3C176.683 57.5 177.283 55.7 177.883 53.9C178.483 52.1 179.016 50.3333 179.483 48.6C180.016 46.8667 180.483 45.2333 180.883 43.7C181.083 42.5 180.883 41.9 180.283 41.9C179.749 41.9 179.116 42.2667 178.383 43C177.649 43.7333 176.916 44.6 176.183 45.6C175.983 45.7333 175.783 45.7333 175.583 45.6C175.383 45.4 175.349 45.2 175.483 45C176.483 43.4667 177.683 42.1667 179.083 41.1C180.483 39.9667 181.983 39.4 183.583 39.4C184.649 39.4 185.349 39.7333 185.683 40.4C186.083 41.0667 186.183 41.8667 185.983 42.8C185.716 44.2667 185.449 45.5 185.183 46.5C184.916 47.5 184.549 48.6333 184.083 49.9C185.816 46.8333 187.716 44.3333 189.783 42.4C191.916 40.4 194.183 39.4 196.583 39.4C197.783 39.4 198.683 39.7333 199.283 40.4C199.949 41.0667 200.283 41.8667 200.283 42.8C200.283 45.4 199.816 48.0333 198.883 50.7C201.016 47.0333 203.083 44.2333 205.083 42.3C207.149 40.3667 209.616 39.4 212.483 39.4C213.816 39.4 214.749 39.7667 215.283 40.5C215.883 41.1667 216.183 41.8667 216.183 42.6C216.183 43.7333 215.916 45 215.383 46.4C214.916 47.7333 214.349 49.1667 213.683 50.7C213.083 52.1667 212.516 53.6667 211.983 55.2C211.516 56.6667 211.283 58.1 211.283 59.5C211.283 61.1667 211.816 62 212.883 62C213.949 62 215.383 60.9 217.183 58.7C217.383 58.5667 217.549 58.6 217.683 58.8C217.883 59 217.916 59.2333 217.783 59.5C216.449 61.1667 215.083 62.5 213.683 63.5C212.283 64.5 210.916 65 209.583 65C207.383 65 206.283 63.7333 206.283 61.2C206.283 59.6 206.516 58 206.983 56.4C207.449 54.7333 207.949 53.1667 208.483 51.7C209.083 50.1667 209.616 48.7333 210.083 47.4C210.549 46.0667 210.783 44.9333 210.783 44ZM234.034 35.1C233.834 35.3 233.601 35.3 233.334 35.1C233.134 34.9 232.967 34.6333 232.834 34.3C232.701 33.9 232.634 33.5 232.634 33.1C232.634 32.6333 232.734 32.2333 232.934 31.9C233.667 30.9667 234.734 29.8 236.134 28.4C237.601 26.9333 239.101 25.7 240.634 24.7C240.767 24.6333 240.934 24.7 241.134 24.9C241.334 25.0333 241.401 25.1667 241.334 25.3C239.934 26.5667 238.601 28.1 237.334 29.9C236.067 31.6333 234.967 33.3667 234.034 35.1ZM223.334 46.4C223.134 46.5333 222.967 46.5 222.834 46.3C222.701 46.0333 222.667 45.8 222.734 45.6C225.201 43.6 228.634 41.5333 233.034 39.4C233.567 39.4 233.834 39.7 233.834 40.3C232.967 41.8333 232.101 43.5 231.234 45.3C230.434 47.1 229.701 48.9 229.034 50.7C228.434 52.4333 227.934 54.1333 227.534 55.8C227.134 57.4 226.934 58.7333 226.934 59.8C226.934 61.1333 227.401 61.8 228.334 61.8C229.067 61.8 229.767 61.5 230.434 60.9C231.167 60.2333 232.001 59.4 232.934 58.4C233.067 58.2667 233.234 58.3 233.434 58.5C233.634 58.6333 233.667 58.8667 233.534 59.2C232.067 60.9333 230.601 62.3333 229.134 63.4C227.734 64.4667 226.367 65 225.034 65C222.701 65 221.534 63.9 221.534 61.7C221.534 60.5 221.701 59.1 222.034 57.5C222.434 55.8333 222.934 54.1667 223.534 52.5C224.201 50.7667 224.901 49.1 225.634 47.5C226.434 45.8333 227.234 44.4 228.034 43.2C227.301 43.6 226.467 44.1 225.534 44.7C224.667 45.3 223.934 45.8667 223.334 46.4ZM252.596 39.4C254.929 39.4 256.662 40.1 257.796 41.5C258.929 42.9 259.496 44.5333 259.496 46.4C259.496 49 258.962 51.4333 257.896 53.7C256.896 55.9 255.629 57.8667 254.096 59.6C252.629 61.2667 251.029 62.6 249.296 63.6C247.562 64.5333 245.996 65 244.596 65C242.329 65 240.596 64.3333 239.396 63C238.262 61.6 237.696 59.8333 237.696 57.7C237.696 55.7667 238.096 53.7333 238.896 51.6C239.762 49.4667 240.862 47.5 242.196 45.7C243.596 43.9 245.196 42.4 246.996 41.2C248.796 40 250.662 39.4 252.596 39.4ZM247.096 61.9C249.162 61.9 250.896 60.8333 252.296 58.7C253.762 56.5 254.496 53.5 254.496 49.7C254.496 47.7 254.096 46.0333 253.296 44.7C252.496 43.3667 251.329 42.7 249.796 42.7C247.662 42.7 245.929 43.7333 244.596 45.8C243.262 47.8667 242.596 50.9 242.596 54.9C242.596 57.2333 242.996 59 243.796 60.2C244.662 61.3333 245.762 61.9 247.096 61.9ZM296.937 39.4C298.07 39.4 299.037 40.0333 299.837 41.3C300.637 42.5 301.037 44.0667 301.037 46C301.037 48.6 300.437 51.0667 299.237 53.4C298.104 55.6667 296.67 57.6667 294.937 59.4C293.204 61.1333 291.337 62.5 289.337 63.5C287.337 64.5 285.504 65 283.837 65C282.237 65 281.037 64.5 280.237 63.5C279.504 62.5 279.137 61.1333 279.137 59.4C279.137 57.8 279.27 55.9667 279.537 53.9C279.804 51.8333 280.104 50.1333 280.437 48.8C279.104 50.5333 277.704 52.6 276.237 55C274.77 57.4 273.304 59.8667 271.837 62.4C271.437 63.1333 270.804 63.7667 269.937 64.3C269.07 64.7667 268.237 65 267.437 65C266.904 65 266.704 64.6333 266.837 63.9C267.304 62.3 267.67 60.3333 267.937 58C268.27 55.6 268.437 53.2667 268.437 51C268.437 48.7333 268.27 46.7667 267.937 45.1C267.67 43.4333 267.137 42.4333 266.337 42.1C265.87 41.9667 265.337 42.1 264.737 42.5C264.137 42.9 263.67 43.4667 263.337 44.2C263.204 44.3333 263.037 44.3333 262.837 44.2C262.637 44 262.57 43.7667 262.637 43.5C262.97 42.7 263.737 41.8333 264.937 40.9C266.204 39.9 267.537 39.4 268.937 39.4C270.537 39.4 271.67 40.2333 272.337 41.9C273.07 43.5667 273.437 46.3 273.437 50.1C273.437 51.8333 273.37 53.4333 273.237 54.9C273.104 56.3 272.937 57.5333 272.737 58.6C274.07 56.2667 275.337 54.2667 276.537 52.6C277.737 50.9333 278.87 49.4 279.937 48C280.337 47.4667 280.67 46.8667 280.937 46.2C281.27 45.4667 281.604 44.4667 281.937 43.2C282.004 42.8 282.304 42.4333 282.837 42.1C283.437 41.7 284.037 41.4 284.637 41.2C285.304 41 285.87 40.9 286.337 40.9C286.804 40.8333 287.037 40.9667 287.037 41.3C285.97 43.5 285.17 46.0667 284.637 49C284.104 51.8667 283.837 54.5333 283.837 57C283.837 58.6667 284.237 59.9 285.037 60.7C285.837 61.4333 286.804 61.8 287.937 61.8C289.137 61.8 290.27 61.4333 291.337 60.7C292.47 59.9667 293.47 59 294.337 57.8C295.204 56.6 295.904 55.2 296.437 53.6C296.97 51.9333 297.237 50.2 297.237 48.4C297.237 45.8 296.737 44.1333 295.737 43.4C294.737 42.6667 293.67 42.7667 292.537 43.7C292.27 43.7667 292.07 43.7333 291.937 43.6C291.804 43.4 291.77 43.2 291.837 43C292.037 42.6667 292.37 42.3 292.837 41.9C293.304 41.4333 293.77 41.0333 294.237 40.7C294.77 40.3 295.27 40 295.737 39.8C296.27 39.5333 296.67 39.4 296.937 39.4ZM325.991 44.4C325.991 48.2 320.958 50.8 310.891 52.2C310.825 52.8667 310.758 53.5333 310.691 54.2C310.691 54.8667 310.691 55.5667 310.691 56.3C310.691 58.0333 311.091 59.3667 311.891 60.3C312.691 61.2333 313.958 61.7 315.691 61.7C316.958 61.7 318.258 61.3333 319.591 60.6C320.925 59.8667 321.991 58.9333 322.791 57.8C323.058 57.6667 323.258 57.7333 323.391 58C323.525 58.2 323.558 58.4333 323.491 58.7C322.158 60.4333 320.458 61.9333 318.391 63.2C316.391 64.4 314.225 65 311.891 65C309.558 65 307.858 64.4333 306.791 63.3C305.791 62.1 305.291 60.4333 305.291 58.3C305.291 56.2333 305.725 54.1 306.591 51.9C307.458 49.6333 308.558 47.5667 309.891 45.7C311.291 43.8333 312.858 42.3333 314.591 41.2C316.391 40 318.191 39.4 319.991 39.4C321.791 39.4 323.225 39.9333 324.291 41C325.425 42 325.991 43.1333 325.991 44.4ZM317.291 42C315.758 42 314.425 42.7333 313.291 44.2C312.225 45.6 311.491 47.8 311.091 50.8C314.291 50.4667 316.658 49.8667 318.191 49C319.725 48.0667 320.491 46.9333 320.491 45.6C320.491 44.6 320.191 43.7667 319.591 43.1C318.991 42.3667 318.225 42 317.291 42ZM341.882 35.1C341.682 35.3 341.449 35.3 341.182 35.1C340.982 34.9 340.815 34.6333 340.682 34.3C340.549 33.9 340.482 33.5 340.482 33.1C340.482 32.6333 340.582 32.2333 340.782 31.9C341.515 30.9667 342.582 29.8 343.982 28.4C345.449 26.9333 346.949 25.7 348.482 24.7C348.615 24.6333 348.782 24.7 348.982 24.9C349.182 25.0333 349.249 25.1667 349.182 25.3C347.782 26.5667 346.449 28.1 345.182 29.9C343.915 31.6333 342.815 33.3667 341.882 35.1ZM331.182 46.4C330.982 46.5333 330.815 46.5 330.682 46.3C330.549 46.0333 330.515 45.8 330.582 45.6C333.049 43.6 336.482 41.5333 340.882 39.4C341.415 39.4 341.682 39.7 341.682 40.3C340.815 41.8333 339.949 43.5 339.082 45.3C338.282 47.1 337.549 48.9 336.882 50.7C336.282 52.4333 335.782 54.1333 335.382 55.8C334.982 57.4 334.782 58.7333 334.782 59.8C334.782 61.1333 335.249 61.8 336.182 61.8C336.915 61.8 337.615 61.5 338.282 60.9C339.015 60.2333 339.849 59.4 340.782 58.4C340.915 58.2667 341.082 58.3 341.282 58.5C341.482 58.6333 341.515 58.8667 341.382 59.2C339.915 60.9333 338.449 62.3333 336.982 63.4C335.582 64.4667 334.215 65 332.882 65C330.549 65 329.382 63.9 329.382 61.7C329.382 60.5 329.549 59.1 329.882 57.5C330.282 55.8333 330.782 54.1667 331.382 52.5C332.049 50.7667 332.749 49.1 333.482 47.5C334.282 45.8333 335.082 44.4 335.882 43.2C335.149 43.6 334.315 44.1 333.382 44.7C332.515 45.3 331.782 45.8667 331.182 46.4Z" fill="#888888"/>
</svg>
